<?xml version="1.0" encoding="utf-8"?>
<!-- Generator: Adobe Illustrator 24.1.2, SVG Export Plug-In . SVG Version: 6.00 Build 0)  -->
<svg version="1.1" id="圖層_1" xmlns="http://www.w3.org/2000/svg" xmlns:xlink="http://www.w3.org/1999/xlink" x="0px" y="0px"
	 viewBox="0 0 201 80" style="enable-background:new 0 0 201 80;" xml:space="preserve">
<style type="text/css">
	.st0{clip-path:url(#SVGID_1_);fill:#EC6C00;}
</style>
<g>
	<defs>
		<rect id="SVGID_3_" x="9.9" y="2.5" width="181.1" height="75"/>
	</defs>
	<clipPath id="SVGID_1_">
		<use xlink:href="#SVGID_3_"  style="overflow:visible;"/>
	</clipPath>
	<path class="st0" d="M120.9,65.6c5.5-0.8,11.1-1.5,16.6-2.3V59c-5.5,0.5-11.1,1.1-16.6,1.6V65.6z M153.3,54.6c-1,0.8-2,1.6-3,2.5
		c1,1.6,2.3,3.3,2.8,5.3c1-0.9,2.1-1.8,3.1-2.7C155.9,58.5,154.1,55.3,153.3,54.6 M130.9,54.9c-0.2,1-0.4,2-0.7,3.1
		c1.1,0.3,2.1,0.6,3.2,0.9c0.4-1.6,0.7-3.2,1.1-4.8c0.2-1.4,0.5-2.8,0.7-4.2c0.1-0.9,0.3-1.9,0.4-2.8c0.4-0.1,0.6-0.2,0.7-0.5
		c-1.4-0.5-2.8-1-4.2-1.5c-0.2,1.5-0.3,3-0.5,4.6C131.4,51.4,131.2,53.1,130.9,54.9 M128.6,58.1c0-2-0.2-4.1-0.6-5.9
		c-0.2-1.4-0.4-2.7-0.6-4.1c-0.2-1-0.4-2.1-0.6-3.1h-0.2c-1.2,0.2-2.4,0.5-3.6,0.7c0.4,1.8,0.5,3.6,0.8,5.5c0.5,2.6,0.7,5.4,0.7,8.2
		C125.9,58.9,127.2,58.5,128.6,58.1 M188.3,43c0.7-0.6,1.5-1.1,2.2-1.7l0.4-0.4c-0.2-0.4-0.3-0.7-0.5-1.1c-0.5-1.2-1.1-2.2-1.8-3.3
		c-0.2-0.4-0.5-1.1-0.9-1.3c-0.8,0.6-1.6,1.1-2.5,1.7l-0.1,0.1c0.4,0.4,0.6,1,0.9,1.5C186.9,39.9,187.9,41.3,188.3,43 M189.5,56.3
		c-0.3-0.4-0.7-0.8-1-1.2V55c0,0.7-0.1,1.4-0.1,2.2c-0.2,1.1-0.3,2.2-0.6,3.1c0,0-0.1,0.1-0.1,0.1c-1-0.1-1.2-1.9-1.4-2.8
		c-0.7-2.7-1.3-6-1.4-9.1c2-0.2,4-0.4,6.1-0.6c-0.1-1.4-0.2-2.8-0.3-4.3l0,0c-2,0.1-4.1,0.3-6.1,0.4c0-2.7-0.1-5.4-0.1-8.1
		c0.2,0,0.4-0.1,0.6-0.1c0.1-0.1,0.1-0.2,0.2-0.3v-0.2c-1.6-0.3-3.2-0.7-4.8-1c0,3.4,0.3,6.7,0.3,10c-1.8,0.1-3.6,0.2-5.4,0.3
		c0.1,1.7,0.3,3.3,0.4,5c1.8-0.2,3.5-0.4,5.3-0.6h0c0,1.7,0.3,3.5,0.6,5c0.6,2.9,0.9,5.6,1.9,7.9c0.6,1.4,1.3,3.2,3.2,3.4
		c0.4,0.1,0.9-0.1,1.2-0.2c2.2-0.7,2.4-3.1,2.8-5.3c0.1-0.7,0.1-1.4,0.2-2.1C190.6,57.1,189.9,56.8,189.5,56.3 M121.4,43.5
		c5.2,0.3,10.5,0.6,15.7,0.9v-4.3c-1.9-0.2-3.8-0.4-5.6-0.6v-4.6c0.3-0.3,0.5-0.1,0.7-0.5v-0.2l-4.5-1c0,1.9,0,3.9,0,5.8
		c-2.1-0.2-4.2-0.4-6.2-0.6V43.5z M158.7,41.5c1.5,0.1,2.9,0.2,4.4,0.3c0-1.3,0.1-2.7,0.1-4c-1.5-0.2-2.9-0.4-4.4-0.5
		c0-0.8,0-1.6,0-2.4c0.4-0.1,0.6-0.2,0.7-0.5c-0.1-0.2-3.7-1.1-4.2-1.1v3.5c-1.7-0.2-3.3-0.4-5-0.6v4.6c1.6,0.1,3.2,0.3,4.9,0.4
		c0.1,0.1,0.1,1.9,0,2.4c-1.9-0.1-3.8-0.2-5.7-0.3c0,1.5,0,3.1,0,4.6c2.9,0,5.8,0.1,8.7,0.1c0,0.7,0,1.5,0,2.2c-2.9,0-5.7,0-8.6,0
		c0,1.5,0,3,0,4.5c2.8-0.1,5.7-0.3,8.5-0.4c0,1.6,0,3.1,0,4.7c-0.1,0.5,0.2,1.3-0.1,1.7c-0.2,0.3-2.4,0.4-3,0.4c0.3,1.4,1,2.7,1,4.3
		c2-0.2,3.8-0.8,4.7-2.1c1-1.5,0.7-6.7,0.7-9.1c0.7,0,1.3-0.1,2-0.1c0-1.3,0.1-2.6,0.1-3.9h-2c0-0.5,0-0.9,0-1.4
		c0.4-0.1,0.6-0.3,0.6-0.7c-0.5,0-1.1,0-1.6-0.1h3c0-1.3,0.1-2.7,0.1-4c-1.6-0.1-3.2-0.2-4.8-0.3V41.5z M143.3,55.4c0-2-0.1-4-0.1-6
		h1.8c0,2,0,3.9,0,5.9C144.5,55.4,143.9,55.4,143.3,55.4 M143.1,38.7c0.6,0,1.2,0.1,1.8,0.1c0,2,0,3.9,0,5.9c-0.6,0-1.2-0.1-1.8-0.1
		C143.2,42.6,143.2,40.7,143.1,38.7 M138.6,33c0.2,10.4,0.3,20.7,0.5,31.1c1.4-0.2,2.8-0.3,4.2-0.5v-3.4c1.9-0.2,3.8-0.4,5.6-0.5
		c0-8.4,0-16.9,0-25.3C145.5,33.9,142.1,33.5,138.6,33 M174,42.2c-0.1-0.6,1.6-3.9,1.9-4.8c0.2-0.5,0.3-1,0.5-1.5
		c0,0,0.5,0.1,0.9-0.2c0,0,0-0.1,0-0.1c-1.6-0.9-3.3-1.8-4.9-2.8c-0.3,0.8-0.5,1.6-0.8,2.4c-0.6,1.8-1.4,3.5-2.2,5.2
		c-0.9,1.9-2,3.8-3.2,5.5c-0.5,0.6-1,1.3-1.6,1.9c-0.2,0.3,0.5,1.1,0.7,1.5c0.5,1.1,1.6,3.2,1.8,4.4h0c1.2-0.9,1.8-2.5,2.7-3.7
		c0,0,0-0.1,0-0.1c0,6,0,12,0,18c1.5-0.2,3-0.4,4.5-0.6c0-8,0-15.9,0-23.9c0.5-0.1,0.8-0.3,0.9-0.7C174.9,42.5,174.5,42.3,174,42.2
		 M105.7,50.7L105.7,50.7c-0.5-1.9-0.9-4.1-1-6.2c0.6,0,1.2,0.1,1.7,0.1C106.4,46.7,105.8,48.8,105.7,50.7 M103.3,58
		c-1,1.7-2.1,3.3-3.8,4.4c-0.6-0.3-1.3-0.7-1.9-1c0.2-0.5,0.4-0.9,0.6-1.4c0.2-0.7,0.5-1.4,0.7-2.1c0.8-0.1,1.5-0.2,2.3-0.3
		c0.2-0.2,0.2-2.6,0.2-3.1c-2.6,0.2-5.1,0.3-7.7,0.5l0.3-0.7c1.5-0.5,4.1-0.5,6.2-0.5v-2.9c0.5,0.4,1.2,1.5,1.4,2.2c0,0,0.1,0,0.1,0
		c0.3-0.5,0.5-1,0.8-1.5c0,0,0.1,0,0.1,0c0.3,1.4,0.6,2.7,0.9,4.1c0.1,0.5,0.3,0.9,0.4,1.4C103.7,57.3,103.5,57.6,103.3,58
		 M95.1,58.4c-0.2,0.5-0.5,0.9-0.7,1.4c-0.8-0.3-1.6-0.6-2.5-0.9c0-0.1,0-0.1,0-0.2c0.4-0.3,2.2-0.2,2.9-0.4L95.1,58.4L95.1,58.4z
		 M95.1,49.8h1.6v1c-0.5,0-1.1,0-1.6,0V49.8z M91.4,38.3c-0.4,0-0.8-0.1-1.2-0.1c0-0.3,0-0.6,0-0.9c0.4,0,0.7,0.1,1.1,0.1
		c0,0,0,0,0,0V38.3z M91.3,42.4c-0.4,0-0.8,0-1.1-0.1v-0.9c0,0,0,0,0,0c0.4,0,0.7,0,1.1,0.1c0,0,0,0,0,0
		C91.3,41.8,91.3,42.1,91.3,42.4 M91.4,50.8c-0.6,0-1.2,0-1.7,0v-1.1h1.7C91.3,50.1,91.3,50.5,91.4,50.8L91.4,50.8z M95.1,41.8
		c0.4,0,0.7,0.1,1.1,0.1c0,0.3,0,0.6,0,0.8c-0.4,0-0.8,0-1.1,0V41.8z M95.1,37.8c0.4,0,0.7,0.1,1.1,0.1c0,0.3,0,0.6,0,0.8
		c-0.4,0-0.8-0.1-1.1-0.1V37.8z M107.5,56.7c0.2-0.7,0.4-1.4,0.6-2.1c0.3-1.5,0.6-3.1,0.9-4.6c0.2-1.7,0.4-3.4,0.6-5.1
		c0.2-0.1,0.8-0.1,1.1,0v-4.2c-1.7-0.2-3.4-0.4-5-0.5c-0.1-0.1,0-0.7,0-1c0.1-1.1,0.3-2.2,0.4-3.3c0.2-0.1,0.4-0.1,0.6-0.3
		c0-0.1,0-0.2,0-0.2c-1.3-0.5-2.6-1.1-3.9-1.6c0,3.2-0.7,7.1-1.5,9.9c-0.4,1.3-0.4,2.7-1.1,3.8v0.1c0-0.2,0-0.4,0-0.5
		c-1.7,0-3.4-0.1-5.1-0.2v-0.8c1.5,0,3.1,0.1,4.6,0.1v-3.6c0.6,0,1.2,0.1,1.7,0.1c0-1.2,0-2.3,0-3.5c-0.6-0.1-1.1-0.1-1.7-0.2v-3.6
		c-1.5-0.2-3.1-0.4-4.6-0.6c0-1.5,0.3-0.8,0.8-1.5v-0.2c-1.5-0.3-3-0.7-4.5-1h0V34c-1.7-0.2-3.4-0.5-5.1-0.7v4.1
		c-0.7-0.1-1.4-0.1-2.2-0.2c0,1.3,0,2.7,0,4v0c0.7,0.1,1.4,0.1,2.2,0.2c0,1.4,0,2.7,0,4.1c1.7,0.1,3.4,0.1,5.1,0.2c0,0,0,0,0,0v0.8
		c-1.9,0-3.8-0.1-5.8-0.1v7.8c1.5,0,2.9-0.1,4.4-0.1c-0.2,0.4-0.3,0.7-0.5,1.1c-1.9,0.1-3.8,0.2-5.6,0.3c0.4,1.5,0.7,3.1,1.1,4.6
		c0.4,0,0.6-0.3,0.7-0.6c0.6-0.1,1.2-0.1,1.8-0.2c-0.5,0.9-1,1.8-1.4,2.7c1.3,0.2,2.6,0.5,3.9,0.7c0-0.1,0.1-0.1,0.1-0.2
		c0.3,0.1,0.5,0.2,0.8,0.2c-0.7,0.6-4.4,1.7-5.7,1.7c0,0,0,0,0,0c0.7,1,1.6,2.6,1.7,4.1c2-0.2,7.1-2.8,8.1-4c1.3,0.3,2,1.4,3.1,1.7
		c0.7-1,1.3-1.9,2-2.9c0,0,0.1,0,0.1-0.1c0.5,0.8,1.1,1.8,1.3,2.8c0,0,0.1,0,0.1,0c1.3-1.6,3.3-2.9,4.1-5h0c0.4,0.6,0.7,1.2,1.1,1.7
		c0.6,0.8,1.3,1.4,1.9,2.1c0,0,0.1,0,0.1,0c0.7-1.4,1.3-2.7,2.1-4C109.6,60.2,107.9,58.1,107.5,56.7 M121.5,34.9
		c0.5-0.1,0.7-0.1,1-0.4v0c-1.6-0.9-3.3-1.8-4.9-2.7c-0.2,1.2-0.7,2.4-1.2,3.4c-1.1,2.7-2.2,5.2-3.6,7.6c-0.7,1.2-1.7,3.1-2.8,4
		c0.9,1.6,1.9,4.1,2.4,5.9h0c0.7-0.5,2-2.4,2.3-3.2c0,0,0.1,0,0.1-0.1c0,6.2,0,12.4,0,18.6c1.5-0.2,3.1-0.5,4.6-0.7V42.5
		c0.6-0.1,0.7-0.3,0.9-0.6c-0.4-0.2-0.9-0.4-1.3-0.5C119.5,39.2,121.1,37.2,121.5,34.9"/>
	<path class="st0" d="M45,53.9c-1.7,0-2.4,1.7-2.5,3h4.7C47.2,55.5,46.7,53.9,45,53.9 M67.5,44c-0.9,0-1.7-0.2-2.3-0.6l0.4-1
		c0.5,0.3,1.2,0.6,2,0.6c1.2,0,1.7-0.6,1.7-1.4c0-0.8-0.5-1.3-1.6-1.7c-1.5-0.6-2.2-1.4-2.2-2.4c0-1.4,1.1-2.5,2.8-2.5
		c0.8,0,1.5,0.2,2,0.5l-0.4,1C69.6,36.3,69,36,68.2,36c-1,0-1.5,0.6-1.5,1.3c0,0.7,0.5,1.1,1.6,1.6c1.4,0.6,2.2,1.3,2.2,2.6
		C70.6,43,69.4,44,67.5,44 M64.2,39.7h-5.9c0,2.4,1.4,3.3,2.9,3.3c1.1,0,1.7-0.2,2.3-0.4l0.3,1c-0.5,0.2-1.4,0.5-2.7,0.5
		c-2.5,0-4-1.8-4-4.4c0-2.7,1.5-4.7,3.9-4.7c2.7,0,3.3,2.4,3.3,4C64.3,39.3,64.3,39.5,64.2,39.7 M55.5,43.9h-1.3v-5.1
		c0-1.4-0.5-2.7-2-2.7c-1.1,0-2.3,0.9-2.3,2.5v5.3h-1.3v-6.4c0-0.9,0-1.5-0.1-2.2h1.2l0.1,1.4h0c0.4-0.8,1.4-1.6,2.8-1.6
		c1.1,0,2.9,0.6,2.9,3.6V43.9z M51.8,58c0,0.7,0,1.4-0.1,1.9h-9.1c0.1,1.8,1.8,2.6,3.9,2.6c1.5,0,2.7-0.2,3.8-0.6l0.7,3.2
		c-1.5,0.6-3.4,0.8-5.3,0.8c-5.1,0-7.9-2.8-7.9-7.4c0-4.2,2.7-7.9,7.5-7.9C49.1,50.7,51.8,53,51.8,58 M40.6,39.9
		c-1.5-0.6-2.2-1.4-2.2-2.4c0-1.4,1.1-2.5,2.8-2.5c0.8,0,1.5,0.2,2,0.5l-0.4,1c-0.3-0.2-0.9-0.5-1.7-0.5c-1,0-1.5,0.6-1.5,1.3
		c0,0.7,0.5,1.1,1.6,1.6c1.4,0.6,2.2,1.3,2.2,2.6c0,1.5-1.2,2.6-3.1,2.6c-0.9,0-1.7-0.2-2.3-0.6l0.4-1c0.5,0.3,1.2,0.6,2,0.6
		c1.2,0,1.7-0.6,1.7-1.4C42.2,40.8,41.7,40.4,40.6,39.9 M46.4,43.9h-1.3v-8.7h1.3V43.9z M45.7,31.9c0.5,0,0.9,0.4,0.9,0.9
		c0,0.6-0.4,0.9-0.9,0.9c-0.5,0-0.9-0.4-0.9-0.9C44.9,32.3,45.2,31.9,45.7,31.9 M35.4,43.9l-0.1-1.4h0C34.9,43.2,34,44,32.5,44
		c-1.3,0-2.8-0.7-2.8-3.7v-5.1H31v4.9c0,1.7,0.5,2.9,1.9,2.9c1,0,2.3-0.8,2.3-2.3v-5.4h1.3v6.3c0,0.9,0,1.6,0.1,2.3H35.4z
		 M27.2,42.8c-0.8,0.8-2.1,1.1-3.9,1.1c-1,0-1.7-0.1-2.2-0.1V31.9c0.7-0.1,1.6-0.3,2.6-0.3c1.5,0,2.5,0.3,3.2,0.9
		c0.6,0.5,0.9,1.2,0.9,2.1c0,1.2-0.8,2.2-2,2.7v0c1.1,0.3,2.5,1.2,2.5,3C28.1,41.5,27.7,42.3,27.2,42.8 M76.8,41c0,0.2,0,0.3,0,0.5
		c0,1.5-1.2,2.6-3.1,2.6c-0.9,0-1.7-0.2-2.3-0.6l0.4-1c0.5,0.3,1.2,0.6,2,0.6c1.2,0,1.7-0.6,1.7-1.4c0-0.8-0.5-1.3-1.6-1.7
		c-1.5-0.6-2.2-1.4-2.2-2.4c0-1.4,1.1-2.5,2.8-2.5c0.2,0,0.4,0,0.6,0L66.5,2.5L9.9,17.7L21,58.9V45.5h5.4l3.8,7.3
		c1,1.8,2.2,4.4,3,6.5h0.1c-0.3-2.4-0.4-5.5-0.4-8.9v-4.8h4.5v20.3h-5l-3.9-7.4c-1-1.9-2.3-4.6-3.1-6.7h-0.1
		c0.1,2.4,0.3,5.5,0.3,9.1v5h-2.7L26,77.5l45-12c-2.3-1.1-2.3-3.7-2.3-5v-6.1h-2v-3.2l-4.5,7l4.6,7.6h-5.6l-1.3-2.6
		c-0.3-0.7-0.7-1.5-1-2.2h-0.1c-0.3,0.8-0.6,1.5-0.9,2.2l-1.1,2.6h-5.3l4.6-7.4L51.5,51H57l1.2,2.4l1,2.3h0.1c0.3-0.7,0.6-1.6,1-2.3
		l1.1-2.4h7.2v-2.7l5-1.3v4h3.3v3.3h-3.3v5.6c0,1.7,0.6,2.4,1.8,2.4c0.6,0,0.9,0,1.3-0.1l0,1.8l5.9-1.6L76.8,41z M73.1,37.3
		c0,0.7,0.5,1.1,1.6,1.6c1.1,0.4,1.8,1,2.1,1.8l-1.2-4.4c-0.3-0.1-0.6-0.2-1-0.2C73.6,36,73.1,36.6,73.1,37.3 M60.8,36
		c-1.6,0-2.3,1.5-2.4,2.7H63C63,37.5,62.5,36,60.8,36 M26.3,34.8L26.3,34.8c0-1.4-1-2.1-2.7-2.1c-0.7,0-1.1,0-1.4,0.1v4.1h1.4
		C25.3,36.9,26.3,36,26.3,34.8 M23.6,37.9h-1.3v4.9c0.3,0.1,0.7,0.1,1.3,0.1c1.7,0,3.2-0.6,3.2-2.5C26.7,38.6,25.2,37.9,23.6,37.9"
		/>
</g>
</svg>
