<?xml version="1.0" encoding="utf-8"?>
<!-- Generator: Adobe Illustrator 24.1.2, SVG Export Plug-In . SVG Version: 6.00 Build 0)  -->
<svg version="1.1" id="圖層_1" xmlns="http://www.w3.org/2000/svg" xmlns:xlink="http://www.w3.org/1999/xlink" x="0px" y="0px"
	 viewBox="0 0 200 80" style="enable-background:new 0 0 200 80;" xml:space="preserve">
<style type="text/css">
	.st0{fill:#AB010B;}
</style>
<g>
	<polygon class="st0" points="163.6,50.4 164.6,50.4 164.6,50 164.5,50 162,50 162,50.4 163.2,50.4 163.2,52 161.9,52 161.9,52.4 
		163.2,52.4 163.2,54.7 163.6,54.7 163.6,52.4 164.8,52.4 164.8,52 163.6,52 	"/>
	<g>
		<path class="st0" d="M156.7,54.6c0.2-0.5,0.4-1,0.5-1.5h3.2v1.1c0,0,0,0,0,0.1c0,0-0.2,0.1-1-0.1l-0.1,0v0.5l0.1,0
			c0.4,0.1,0.7,0.1,0.9,0.1c0.2,0,0.4-0.1,0.5-0.2c0.1-0.1,0.1-0.2,0.1-0.3v-4.1c0-0.1-0.1-0.2-0.2-0.2h-3.6c-0.1,0-0.2,0.1-0.2,0.2
			v2.2c0,0.6-0.2,1.3-0.6,2.1l0,0.1L156.7,54.6L156.7,54.6z M157.3,50.4h3.1v0.9h-3.1V50.4z M160.4,51.7v0.9h-3.1c0-0.1,0-0.2,0-0.2
			v-0.7H160.4z"/>
	</g>
	<polygon class="st0" points="35.4,38.9 37.1,48.5 37.3,49.3 38.1,49.2 40.5,48.8 41.3,48.6 41.1,47.8 39.4,38 39.3,37.2 38.4,37.4 
		36,37.9 35.3,38.1 	"/>
	<polygon class="st0" points="56.8,39.7 69.4,39.7 70.3,39.7 70.3,38.9 70.3,36.5 70.3,35.7 69.4,35.7 42.2,35.7 41.4,35.7 
		41.4,36.5 41.4,38.9 41.4,39.7 42.2,39.7 54.4,39.7 53.5,38.9 53.5,51.5 54.4,50.7 40.4,50.7 39.6,50.7 39.6,51.5 39.6,54 
		39.6,54.9 40.4,54.9 71,54.9 71.8,54.9 71.8,54 71.8,51.5 71.8,50.7 71,50.7 56.8,50.7 57.6,51.5 57.6,38.9 	"/>
	<g>
		<path class="st0" d="M91.2,42.7l-6.4,2.5L86,46V29.7l-0.8,0.8h6.2h0.8v-0.8v-2.3v-0.8h-0.8h-6.2l0.8,0.8V13.2l-0.8,0.8h6.6h0.8
			v-0.8v-2.3v-0.8h-0.8H76.2h-0.8v0.8v2.3v0.8h0.8h6.5l-0.8-0.8v14.2l0.8-0.8h-6.5h-0.8v0.8v2.3v0.8h0.8h6.5l-0.8-0.8v17l0.6-0.8
			l-6.6,1.9l-0.9,0.3l0.4,0.9l0.9,2.2l0.3,0.7l0.7-0.2c7.4-1.9,12.7-3.7,15.7-5.3l0.7-0.4l-0.3-0.7l-1-2.1L92,42.4L91.2,42.7z"/>
		<path class="st0" d="M39.3,35.8l2.3-0.6l0.8-0.2l-0.2-0.8c-0.5-1.7-1.6-4.6-3.5-9.1l-0.3-0.7l-0.7,0.3l-2.3,0.8l-0.8,0.3l0.3,0.8
			l1.6,3.7l-0.1-0.3v0.2l0.7-0.8l-9.6,1l0.7,1.4c5-5.6,8.3-11,9.8-16l0.2-0.8l-0.8-0.2l-2.3-0.6l-0.8-0.2l-0.2,0.7
			c-0.8,2.5-2.1,5.1-3.9,8l1.2-0.2l-3.9-3.5l0.2,1c2-3.6,3.5-6.7,4.5-9.2l0.3-0.7l-0.7-0.3l-2.2-1L29,8.1l-0.3,0.8
			c-1.3,3.2-2.6,6.1-4,8.6l1.2-0.3l-2.6-1.7L22.5,15l-0.4,0.7l-1.2,2l-0.4,0.7l0.7,0.4c2.6,1.5,5.2,3.7,8.1,6.5l-0.1-1.1
			c-1.7,2.3-3.4,4.5-5.2,6.5l0.5-0.3l-2.8,0.2l-1,0.1l0.2,0.9l0.6,2.3l0.2,0.7l0.7-0.1l8.2-0.8l-0.9-0.8v22.5v0.8h0.8h2.4h0.8v-0.8
			V32.9l-0.7,0.8l5.4-0.6l-0.9-0.6l0.8,2.7l0.2,0.7L39.3,35.8z"/>
	</g>
	<polygon class="st0" points="109.2,44.3 122.8,44.3 123.6,44.3 123.6,43.4 123.6,41.1 123.6,40.3 122.8,40.3 109.2,40.3 110,41.1 
		110,34.5 110,33.7 109.2,33.7 106.7,33.7 105.9,33.7 105.9,34.5 105.9,41.1 106.7,40.3 93.8,40.3 93,40.3 93,41.1 93,43.4 93,44.3 
		93.8,44.3 106.7,44.3 105.9,43.4 105.9,51.5 106.7,50.7 91.3,50.7 90.5,50.7 90.5,51.5 90.5,54 90.5,54.9 91.3,54.9 124.7,54.9 
		125.5,54.9 125.5,54 125.5,51.5 125.5,50.7 124.7,50.7 109.2,50.7 110,51.5 110,43.4 	"/>
	<g>
		<path class="st0" d="M158,24.6c-1.1-3.3-1.8-6.6-2-9.7c0,0,0-0.5,0-0.5c0,0,0.1-2.3,0.1-2.3c0,0,0-3.7,0-3.7V7.6h-0.8H152h-0.8
			v0.8v3.8c0,13.9-3.9,24.3-11.8,31.8c-2.8,2.8-6.3,4.7-10.2,6.7l-0.9,0.5l0.6,0.8l1.9,2.4l0.4,0.6l0.6-0.4
			c7.7-4.7,12.4-8.7,15.8-13.3c3.7-5.4,5.9-10.6,7.2-16.4l0.1-0.2l-0.1-0.2l-0.2-0.5l-1.6,0.5c2.1,7.9,6.9,15.5,15.2,23.7l0,0l0,0
			l7.2,6.1l0.5,0.4l0.5-0.4l2.6-2l0.8-0.6l-0.8-0.7C167.6,41.6,160.8,33.2,158,24.6"/>
		<path class="st0" d="M68.2,16.4l-2.2-1l-0.9-0.4L64.9,16c-0.8,2.9-1.9,5.3-3.6,7.4c-0.6,0.8-0.6,1.6,0,2.2
			c1.5,1.7,3.1,4.2,4.7,7.8l0.4,0.8l0.8-0.5l2.1-1.3L70,32l-0.4-0.7c-2-3.5-3.6-6-4.7-7.1c0.1,0.1,0.1,0.3,0,0.4c0,0,0,0,0,0l0,0
			l0,0c1.2-1.9,2.4-4.3,3.6-7.1l0.3-0.7L68.2,16.4z"/>
		<path class="st0" d="M20.8,52.5l2.4,0.6l0.7,0.2l0.3-0.7c2-5.5,3.2-10,3.7-13.8l0.1-0.8l-0.7-0.2l-2.4-0.5l-0.9-0.2l-0.1,0.9
			c-0.4,3.4-1.6,7.9-3.5,13.3L20,52.2L20.8,52.5z"/>
	</g>
	<polygon class="st0" points="69.8,10.1 40.6,10.1 39.8,10.1 39.8,10.9 39.8,13.2 39.8,14 40.6,14 69.8,14 70.6,14 70.6,13.2 
		70.6,10.9 70.6,10.1 	"/>
	<g>
		<path class="st0" d="M58.8,16.6l-2.1-1.2l-0.8-0.5l-0.4,0.9c-1.3,3-2.8,5.5-4.5,7.5l0,0c-1.1,1.1,0.2,2.7,0.7,3.3
			c1.3,1.4,2.8,3.9,4.5,7.1l0.4,0.8l0.8-0.5l2-1.3l0.7-0.4l-0.4-0.7c-2.1-3.4-3.8-5.8-5.1-7.2l0,0c0.1,0.1,0.1,0.3,0,0.5l0,0l0,0
			c1.1-1.4,2.5-3.7,4.4-7l0.4-0.7L58.8,16.6z"/>
		<path class="st0" d="M48.6,16.5l-2.2-1.1L45.6,15l-0.3,0.9c-1.1,3.1-2.4,5.7-4,7.6c-0.9,1.1,0.3,2.7,0.8,3.3
			c1.3,1.9,2.5,4.2,3.7,7.1l0.4,0.9l0.8-0.5l2.1-1.2l0.7-0.4L49.4,32c-1.8-3.5-3.2-5.9-4.5-7.4c0.1,0.1,0.1,0.2,0,0.3
			c1.2-1.7,2.6-4.1,4-7.3l0.3-0.7L48.6,16.5z"/>
	</g>
	<path class="st0" d="M111.1,26.5l7.5,0v5.2h-11.9L111.1,26.5z M98.1,26l6.2,5.7h-6.2V26z M116.3,20.4l2.3,1.9v0.3h-4.1L116.3,20.4z
		 M109.8,14.9l2.7,2.3l-2.7,2.6V14.9z M105.7,23.8L98.1,18v-3.7h7.8V24L105.7,23.8z M123.9,6.5l-8.4,7.8l-4.3-3.6l-0.6-0.5H93.9v8.6
		l-1.8,1.6l1.8,1.7v13.7h28.9V20.4l-0.7-0.6l-3-2.5l7.4-8.8L123.9,6.5z"/>
	<polygon class="st0" points="165.4,50 165,50 165,53.6 165.5,53.6 165.5,50 	"/>
	<g>
		<path class="st0" d="M166.7,49.7h-0.4v4.4c0,0,0,0,0,0c-0.1,0.1-0.4,0.1-1-0.1l-0.1,0v0.4l0.1,0c0.7,0.2,1.1,0.2,1.4,0
			c0.1-0.1,0.2-0.2,0.2-0.3v-4.5H166.7z"/>
	</g>
	<polygon class="st0" points="22.6,69.7 23.5,69.7 23.5,61.8 22.6,61.8 22.6,61.6 25.8,61.6 27.3,66.6 28.7,61.6 31.8,61.6 
		31.8,61.8 30.9,61.8 30.9,69.7 31.8,69.7 31.8,69.9 27.9,69.9 27.9,69.7 28.9,69.7 28.9,61.9 26.5,69.9 26.2,69.9 23.8,61.9 
		23.8,69.7 24.8,69.7 24.8,69.9 22.6,69.9 	"/>
	<path class="st0" d="M31.4,70h2.4v-0.2h-1.2l0.8-2.2h2.3l0.7,2.2h-1V70h3.9v-0.2h-0.7l-2.9-8.2h-0.5l-2.8,8.2h-0.9V70z M34.5,64.2
		l1,3.1h-2.1L34.5,64.2z"/>
	<polygon class="st0" points="38.9,69.7 39.9,69.7 39.9,61.8 38.9,61.8 38.9,61.6 42.1,61.6 45.4,66.9 45.4,61.8 44.4,61.8 
		44.4,61.6 46.6,61.6 46.6,61.8 45.6,61.8 45.6,69.9 44.9,69.9 40.2,62.2 40.2,69.7 41.1,69.7 41.1,69.9 38.9,69.9 	"/>
	<path class="st0" d="M45.5,70h2.4v-0.2h-1.2l0.8-2.2h2.3l0.7,2.2h-1V70h3.9v-0.2h-0.7l-2.9-8.2h-0.5l-2.8,8.2h-0.9V70z M48.6,64.2
		l1,3.1h-2.1L48.6,64.2z"/>
	<g>
		<path class="st0" d="M59.1,61.6h0.2l0.1,2.4h-0.2c-0.1-0.4-0.2-0.7-0.3-0.9c-0.1-0.2-0.3-0.5-0.6-0.9c-0.3-0.4-0.9-0.6-1.6-0.6
			c-0.4,0-0.7,0.1-1,0.2c-0.3,0.2-0.5,0.4-0.7,0.8c-0.2,0.4-0.3,1.4-0.3,3.1c0,0.9,0,1.5,0.1,2c0,0.5,0.2,0.9,0.3,1.4
			c0.2,0.5,0.6,0.7,1.3,0.7c0.4,0,0.7-0.1,0.9-0.4c0.2-0.2,0.3-0.6,0.3-1.2v-1.7h-1v-0.2h3.9v0.2h-0.9v1.7c-0.1,0.1-0.2,0.3-0.3,0.4
			c-0.1,0.1-0.2,0.3-0.4,0.5c-0.2,0.2-0.5,0.4-1,0.6c-0.5,0.2-0.9,0.3-1.5,0.3c-1.2,0-2.2-0.5-2.9-1.4c-0.7-0.9-1-1.9-1-2.9
			c0-1.2,0.4-2.3,1.2-3.1c0.8-0.8,1.7-1.3,2.8-1.3c0.4,0,0.8,0,1.1,0.1c0.3,0.1,0.6,0.3,1,0.6L59.1,61.6z"/>
		<path class="st0" d="M60.3,69.7h1v-7.9h-1v-0.2h6.5l0.1,2.3h-0.2c-0.1-0.5-0.3-0.9-0.6-1.4c-0.3-0.4-0.8-0.7-1.3-0.7h-1.5v3.8h0.2
			c0.1,0,0.2,0,0.3,0c0.1,0,0.2,0,0.4-0.1c0.2-0.1,0.4-0.2,0.5-0.4c0.1-0.1,0.2-0.3,0.2-0.5c0-0.2,0.1-0.4,0.1-0.7h0.2v3.6h-0.2
			c0-0.3-0.1-0.5-0.1-0.7c0-0.2-0.1-0.4-0.3-0.6c-0.2-0.3-0.5-0.4-1.1-0.4h-0.3v3.9h1.5c0.3,0,0.6-0.1,0.8-0.2
			c0.3-0.2,0.5-0.4,0.7-0.6c0.2-0.2,0.3-0.5,0.4-0.6c0.1-0.2,0.2-0.5,0.3-0.9h0.2l-0.1,2.6h-6.8V69.7z"/>
		<path class="st0" d="M67.4,69.9h4v-0.2h-1v-4h0.7c0.4,0,0.7,0.1,0.9,0.4c0.2,0.3,0.3,0.6,0.3,1.1l0.1,1c0,0.6,0.2,1.1,0.5,1.4
			c0.3,0.3,0.8,0.5,1.4,0.5c0.2,0,0.4,0,0.5-0.1c0.2,0,0.4-0.1,0.6-0.2l-0.1-0.2c-0.2,0.1-0.3,0.1-0.4,0.1c-0.2,0-0.4-0.1-0.5-0.3
			c-0.1-0.2-0.1-0.5-0.1-1c0-0.4,0-0.8-0.1-1.1c-0.1-0.3-0.2-0.6-0.4-0.8c-0.2-0.2-0.3-0.4-0.5-0.5c-0.2-0.1-0.4-0.2-0.6-0.3
			c-0.2-0.1-0.5-0.1-0.8-0.2c0.3-0.1,0.6-0.1,0.8-0.2c0.2-0.1,0.4-0.2,0.7-0.3c0.4-0.2,0.6-0.4,0.8-0.7c0.2-0.2,0.2-0.6,0.2-1
			c0-0.6-0.2-1.1-0.7-1.4c-0.5-0.3-1.1-0.5-2-0.5h-4.6v0.2h1v7.9h-1V69.9z M70.4,61.8h1.1c0.4,0,0.7,0.1,0.9,0.4
			c0.2,0.3,0.3,0.8,0.3,1.4c0,0.6-0.1,1.1-0.3,1.3c-0.2,0.3-0.6,0.4-1.1,0.4h-0.9V61.8z"/>
		<path class="st0" d="M77.9,64.9c0.4-0.2,0.6-0.4,0.8-0.6c0.2-0.2,0.3-0.3,0.4-0.4c0.1-0.1,0.2-0.2,0.3-0.3
			c0.1-0.1,0.2-0.2,0.3-0.4c0.1-0.1,0.2-0.3,0.3-0.5h0.2v2.2h1v0.2h-1v3.6c0,0.5,0.2,0.7,0.5,0.7c0.3,0,0.5-0.3,0.7-0.8l0.2,0.1
			c-0.1,0.3-0.2,0.5-0.3,0.6c-0.1,0.1-0.3,0.3-0.5,0.4c-0.2,0.1-0.6,0.2-1,0.2c-0.9,0-1.4-0.4-1.4-1.1v-3.7h-0.7V64.9z"/>
		<path class="st0" d="M82.3,65.5c-0.5,0.5-0.8,1.1-0.8,1.9c0,0.7,0.3,1.3,0.8,1.9c0.5,0.5,1.2,0.8,1.9,0.8c0.8,0,1.4-0.3,1.9-0.8
			c0.5-0.5,0.8-1.1,0.8-1.9c0-0.7-0.3-1.3-0.8-1.9c-0.5-0.5-1.2-0.8-1.9-0.8C83.5,64.8,82.8,65,82.3,65.5 M83.3,67.1
			c0-0.9,0.1-1.5,0.2-1.8c0.1-0.3,0.4-0.4,0.8-0.4c0.4,0,0.6,0.1,0.7,0.4c0.1,0.3,0.1,0.5,0.2,0.8c0,0.3,0,0.7,0,1.2
			c0,0.5,0,0.9,0,1.2c0,0.3-0.1,0.6-0.2,0.9c-0.1,0.3-0.3,0.4-0.8,0.4c-0.4,0-0.7-0.1-0.7-0.4c-0.1-0.2-0.1-0.5-0.1-0.8
			c0-0.3,0-0.7,0-1.3V67.1z"/>
		<path class="st0" d="M91,65.7c-0.2-0.3-0.5-0.6-0.7-0.7c-0.2-0.1-0.5-0.2-0.8-0.2c-0.6,0-1.2,0.3-1.6,0.8
			c-0.4,0.5-0.7,1.2-0.7,1.9c0,0.7,0.2,1.3,0.6,1.8c0.4,0.5,0.9,0.7,1.6,0.7c0.6,0,1-0.1,1.1-0.3c0.2-0.2,0.3-0.4,0.3-0.5
			c0-0.1,0.1-0.2,0.1-0.2v0.9h2.4v-0.2h-0.8v-8.1h-2.5v0.2H91V65.7z M91,68.5c0,0.1-0.1,0.3-0.2,0.5c-0.1,0.2-0.2,0.4-0.4,0.5
			c-0.2,0.1-0.3,0.2-0.5,0.2c-0.2,0-0.4-0.1-0.5-0.2c-0.1-0.1-0.2-0.3-0.2-0.4c0-0.1,0-0.4,0-0.6v-0.2v-1.6c0-0.1,0-0.2,0-0.3
			c0-0.1,0-0.2,0-0.4c0.1-0.2,0.2-0.4,0.3-0.5c0.1-0.1,0.3-0.2,0.4-0.2c0.2,0,0.4,0.1,0.5,0.3c0.2,0.2,0.3,0.4,0.4,0.6
			c0.1,0.2,0.1,0.4,0.1,0.6v1.4C91,68.2,91,68.4,91,68.5"/>
		<path class="st0" d="M96.6,67l-0.3,0c-0.4,0.1-0.7,0.1-0.9,0.2c-0.2,0-0.4,0.1-0.7,0.2c-0.3,0.1-0.5,0.2-0.6,0.4
			c-0.1,0.1-0.2,0.3-0.3,0.4c-0.1,0.2-0.1,0.3-0.1,0.5c0,0.4,0.1,0.7,0.4,0.9c0.3,0.2,0.6,0.3,1,0.3c0.3,0,0.7-0.1,0.9-0.3
			c0.2-0.1,0.5-0.3,0.7-0.7c0.1,0.3,0.2,0.6,0.4,0.7c0.2,0.1,0.5,0.2,0.8,0.2c0.4,0,0.8-0.1,1-0.4l0.2-0.2l-0.1-0.2
			c-0.1,0.1-0.3,0.2-0.4,0.2c-0.2,0-0.2-0.1-0.2-0.2v-0.3v-2.9c0-0.7-0.7-1.1-2.1-1.1c-0.7,0-1.3,0.1-1.7,0.3
			c-0.4,0.2-0.6,0.5-0.6,0.9c0,0.2,0.1,0.4,0.2,0.5c0.1,0.1,0.3,0.2,0.6,0.2s0.4-0.1,0.6-0.2c0.2-0.1,0.2-0.3,0.2-0.5
			c0-0.1,0-0.3-0.1-0.4c-0.1-0.1-0.1-0.2-0.1-0.2c0,0,0,0,0-0.1c0-0.1,0.1-0.2,0.2-0.3c0.1-0.1,0.3-0.1,0.5-0.1
			c0.2,0,0.4,0.1,0.5,0.2c0.1,0.1,0.1,0.3,0.1,0.6V67z M96.6,68.4c0,0.3-0.1,0.5-0.2,0.7c-0.1,0.2-0.3,0.3-0.5,0.3
			c-0.2,0-0.3-0.1-0.5-0.3c-0.1-0.2-0.2-0.4-0.2-0.7c0-0.3,0.1-0.5,0.2-0.7c0.1-0.1,0.2-0.2,0.4-0.3c0.2-0.1,0.4-0.1,0.7-0.1V68.4z"
			/>
		<path class="st0" d="M98.4,64.9h3.2v0.2h-0.8l1.3,2.9l1.1-2.9h-1v-0.2h2v0.2h-0.7l-2.8,7c-0.4,0.9-0.8,1.3-1.3,1.3
			c-0.2,0-0.4-0.1-0.6-0.2c-0.2-0.2-0.2-0.3-0.2-0.6c0-0.2,0.1-0.4,0.2-0.6c0.2-0.2,0.3-0.3,0.6-0.3c0.1,0,0.2,0,0.3,0.1
			c0.1,0,0.1,0.1,0.2,0.2c0.1,0.1,0.1,0.2,0.1,0.2c0,0,0,0,0.1,0c0.1,0,0.1,0,0.2-0.1c0.1-0.1,0.1-0.2,0.2-0.4l0.7-2l-2.3-4.8h-0.6
			V64.9z"/>
	</g>
</g>
</svg>
